<svg id="visual" viewBox="0 0 900 600" width="900" height="600" xmlns="http://www.w3.org/2000/svg" xmlns:xlink="http://www.w3.org/1999/xlink" version="1.1"><rect x="0" y="0" width="900" height="600" fill="#6d73a6"></rect><path d="M0 418L129 406L257 365L386 379L514 380L643 350L771 417L900 379L900 601L771 601L643 601L514 601L386 601L257 601L129 601L0 601Z" fill="#9396e8"></path><path d="M0 446L129 444L257 440L386 455L514 467L643 409L771 456L900 415L900 601L771 601L643 601L514 601L386 601L257 601L129 601L0 601Z" fill="#7e81da"></path><path d="M0 483L129 437L257 455L386 465L514 454L643 494L771 438L900 458L900 601L771 601L643 601L514 601L386 601L257 601L129 601L0 601Z" fill="#696ccb"></path><path d="M0 504L129 483L257 539L386 520L514 497L643 511L771 485L900 512L900 601L771 601L643 601L514 601L386 601L257 601L129 601L0 601Z" fill="#5357bc"></path><path d="M0 541L129 574L257 539L386 546L514 572L643 560L771 574L900 531L900 601L771 601L643 601L514 601L386 601L257 601L129 601L0 601Z" fill="#3c43ad"></path></svg>